<svg enable-background="new 0 0 24 24" height="512" viewBox="0 0 24 24" width="512" xmlns="http://www.w3.org/2000/svg"><path d="m19.275.75h-17.55c-.536 0-.975.439-.975.975v17.549c0 .536.439.975.975.975h17.549c.539 0 .975-.437.975-.975v-17.549c.001-.536-.438-.975-.974-.975z" fill="#ffb74d"/><path d="m6.855.75v6.168c0 .213.146.404.365.489.218.085.477.043.656-.099l2.624-2.142 2.624 2.142c.114.092.26.142.414.142.081 0 .162-.014.243-.043.219-.085.365-.277.365-.489v-6.168z" fill="#795548"/><path d="m17.5 23.35c-3.226 0-5.85-2.624-5.85-5.85s2.624-5.85 5.85-5.85 5.85 2.624 5.85 5.85-2.624 5.85-5.85 5.85z" fill="#fd1a49"/><path d="m17.5 20c-.414 0-.75-.336-.75-.75v-.241c0-.968.484-1.894 1.327-2.542.265-.203.423-.534.423-.884 0-.598-.449-1.083-1-1.083s-1 .486-1 1.083c0 .414-.336.75-.75.75s-.75-.335-.75-.75c0-1.424 1.122-2.583 2.5-2.583s2.5 1.159 2.5 2.583c0 .813-.377 1.589-1.009 2.074-.277.212-.741.67-.741 1.352v.241c0 .414-.336.75-.75.75z"/><path d="m17.5 22c-.1 0-.2-.02-.29-.06s-.17-.09-.24-.16-.12-.15-.16-.24-.06-.19-.06-.29.02-.2.06-.29.09-.17.16-.24.15-.12.24-.16c.19-.08.39-.08.58 0 .09.04.17.09.24.16s.13.15.16.24c.04.09.06.19.06.29s-.02.19-.06.29c-.03.09-.09.17-.16.24s-.15.12-.24.16-.19.06-.29.06z"/><path d="m9.25 21h-7.5c-.965 0-1.75-.785-1.75-1.75v-17.5c0-.965.785-1.75 1.75-1.75h17.5c.965 0 1.75.785 1.75 1.75v7.5c0 .414-.336.75-.75.75s-.75-.336-.75-.75v-7.5c0-.138-.112-.25-.25-.25h-17.5c-.138 0-.25.112-.25.25v17.5c0 .138.112.25.25.25h7.5c.414 0 .75.336.75.75s-.336.75-.75.75z"/><path d="m14.25 9c-.187 0-.37-.069-.512-.202l-3.238-3.022-3.238 3.022c-.218.204-.537.258-.811.14-.274-.119-.451-.389-.451-.688v-7.5c0-.414.336-.75.75-.75h7.5c.414 0 .75.336.75.75v7.5c0 .299-.177.569-.451.688-.096.041-.198.062-.299.062zm-3.75-5c.184 0 .368.067.512.202l2.488 2.322v-5.024h-6v5.024l2.488-2.322c.144-.135.328-.202.512-.202z"/><path d="m17.5 24c-3.584 0-6.5-2.916-6.5-6.5s2.916-6.5 6.5-6.5 6.5 2.916 6.5 6.5-2.916 6.5-6.5 6.5zm0-11.5c-2.757 0-5 2.243-5 5s2.243 5 5 5 5-2.243 5-5-2.243-5-5-5z"/></svg>